<?xml version="1.0" encoding="UTF-8"?>
<svg width="1650" height="640" viewBox="0 0 1650 640" xmlns="http://www.w3.org/2000/svg">
  <style>
    .ascii-text {
      font-family: 'Courier New', 'Lucida Console', 'Monaco', monospace;
      font-size: 13.6px;
      font-weight: normal;
      fill: currentColor;
      text-anchor: start;
      dominant-baseline: text-before-edge;
    }
  </style>
  <text x="590" y="80" class="ascii-text">o</text>
  <text x="600" y="80" class="ascii-text">o</text>
  <text x="610" y="80" class="ascii-text">o</text>
  <text x="620" y="80" class="ascii-text">o</text>
  <text x="630" y="80" class="ascii-text">+</text>
  <text x="750" y="80" class="ascii-text">+</text>
  <text x="760" y="80" class="ascii-text">*</text>
  <text x="770" y="80" class="ascii-text">*</text>
  <text x="780" y="80" class="ascii-text">o</text>
  <text x="790" y="80" class="ascii-text">a</text>
  <text x="800" y="80" class="ascii-text">o</text>
  <text x="810" y="80" class="ascii-text">~</text>
  <text x="600" y="96" class="ascii-text">*</text>
  <text x="610" y="96" class="ascii-text">*</text>
  <text x="620" y="96" class="ascii-text">a</text>
  <text x="630" y="96" class="ascii-text">A</text>
  <text x="640" y="96" class="ascii-text">a</text>
  <text x="650" y="96" class="ascii-text">+</text>
  <text x="660" y="96" class="ascii-text">:</text>
  <text x="670" y="96" class="ascii-text">=</text>
  <text x="680" y="96" class="ascii-text">*</text>
  <text x="690" y="96" class="ascii-text">*</text>
  <text x="700" y="96" class="ascii-text">a</text>
  <text x="710" y="96" class="ascii-text">A</text>
  <text x="720" y="96" class="ascii-text">A</text>
  <text x="730" y="96" class="ascii-text">A</text>
  <text x="740" y="96" class="ascii-text">a</text>
  <text x="750" y="96" class="ascii-text">*</text>
  <text x="760" y="96" class="ascii-text">*</text>
  <text x="770" y="96" class="ascii-text">=</text>
  <text x="780" y="96" class="ascii-text">~</text>
  <text x="800" y="96" class="ascii-text">~</text>
  <text x="810" y="96" class="ascii-text">*</text>
  <text x="820" y="96" class="ascii-text">A</text>
  <text x="830" y="96" class="ascii-text">A</text>
  <text x="840" y="96" class="ascii-text">%</text>
  <text x="850" y="96" class="ascii-text">A</text>
  <text x="860" y="96" class="ascii-text">A</text>
  <text x="870" y="96" class="ascii-text">+</text>
  <text x="620" y="112" class="ascii-text">=</text>
  <text x="630" y="112" class="ascii-text">A</text>
  <text x="640" y="112" class="ascii-text">O</text>
  <text x="650" y="112" class="ascii-text">O</text>
  <text x="660" y="112" class="ascii-text">O</text>
  <text x="670" y="112" class="ascii-text">O</text>
  <text x="680" y="112" class="ascii-text">A</text>
  <text x="690" y="112" class="ascii-text">O</text>
  <text x="700" y="112" class="ascii-text">.</text>
  <text x="870" y="112" class="ascii-text">+</text>
  <text x="880" y="112" class="ascii-text">o</text>
  <text x="890" y="112" class="ascii-text">*</text>
  <text x="900" y="112" class="ascii-text">.</text>
  <text x="610" y="128" class="ascii-text">*</text>
  <text x="620" y="128" class="ascii-text">O</text>
  <text x="630" y="128" class="ascii-text">a</text>
  <text x="640" y="128" class="ascii-text">+</text>
  <text x="670" y="128" class="ascii-text">-</text>
  <text x="680" y="128" class="ascii-text">*</text>
  <text x="690" y="128" class="ascii-text">*</text>
  <text x="700" y="128" class="ascii-text">O</text>
  <text x="710" y="128" class="ascii-text">A</text>
  <text x="720" y="128" class="ascii-text">O</text>
  <text x="730" y="128" class="ascii-text">*</text>
  <text x="740" y="128" class="ascii-text">*</text>
  <text x="750" y="128" class="ascii-text">+</text>
  <text x="840" y="128" class="ascii-text">=</text>
  <text x="850" y="128" class="ascii-text">*</text>
  <text x="860" y="128" class="ascii-text">*</text>
  <text x="870" y="128" class="ascii-text">O</text>
  <text x="880" y="128" class="ascii-text">A</text>
  <text x="890" y="128" class="ascii-text">A</text>
  <text x="900" y="128" class="ascii-text">o</text>
  <text x="910" y="128" class="ascii-text">-</text>
  <text x="600" y="144" class="ascii-text">*</text>
  <text x="610" y="144" class="ascii-text">O</text>
  <text x="620" y="144" class="ascii-text">O</text>
  <text x="630" y="144" class="ascii-text">.</text>
  <text x="730" y="144" class="ascii-text">+</text>
  <text x="740" y="144" class="ascii-text">*</text>
  <text x="750" y="144" class="ascii-text">*</text>
  <text x="760" y="144" class="ascii-text">a</text>
  <text x="770" y="144" class="ascii-text">O</text>
  <text x="780" y="144" class="ascii-text">A</text>
  <text x="790" y="144" class="ascii-text">A</text>
  <text x="800" y="144" class="ascii-text">A</text>
  <text x="810" y="144" class="ascii-text">O</text>
  <text x="820" y="144" class="ascii-text">A</text>
  <text x="830" y="144" class="ascii-text">A</text>
  <text x="840" y="144" class="ascii-text">a</text>
  <text x="850" y="144" class="ascii-text">a</text>
  <text x="860" y="144" class="ascii-text">o</text>
  <text x="870" y="144" class="ascii-text">o</text>
  <text x="880" y="144" class="ascii-text">*</text>
  <text x="890" y="144" class="ascii-text">*</text>
  <text x="900" y="144" class="ascii-text">+</text>
  <text x="590" y="160" class="ascii-text">*</text>
  <text x="600" y="160" class="ascii-text">O</text>
  <text x="610" y="160" class="ascii-text">A</text>
  <text x="620" y="160" class="ascii-text">O</text>
  <text x="630" y="160" class="ascii-text">-</text>
  <text x="590" y="176" class="ascii-text">*</text>
  <text x="600" y="176" class="ascii-text">A</text>
  <text x="610" y="176" class="ascii-text">%</text>
  <text x="620" y="176" class="ascii-text">A</text>
  <text x="630" y="176" class="ascii-text">O</text>
  <text x="640" y="176" class="ascii-text">*</text>
  <text x="590" y="192" class="ascii-text">=</text>
  <text x="600" y="192" class="ascii-text">o</text>
  <text x="610" y="192" class="ascii-text">O</text>
  <text x="620" y="192" class="ascii-text">A</text>
  <text x="630" y="192" class="ascii-text">%</text>
  <text x="640" y="192" class="ascii-text">O</text>
  <text x="650" y="192" class="ascii-text">o</text>
  <text x="660" y="192" class="ascii-text">*</text>
  <text x="670" y="192" class="ascii-text">*</text>
  <text x="680" y="192" class="ascii-text">*</text>
  <text x="690" y="192" class="ascii-text">+</text>
  <text x="700" y="192" class="ascii-text">:</text>
  <text x="610" y="208" class="ascii-text">=</text>
  <text x="620" y="208" class="ascii-text">+</text>
  <text x="630" y="208" class="ascii-text">*</text>
  <text x="640" y="208" class="ascii-text">+</text>
  <text x="650" y="208" class="ascii-text">*</text>
  <text x="660" y="208" class="ascii-text">*</text>
  <text x="670" y="208" class="ascii-text">+</text>
  <text x="680" y="208" class="ascii-text">*</text>
  <text x="690" y="208" class="ascii-text">*</text>
  <text x="700" y="208" class="ascii-text">o</text>
  <text x="710" y="208" class="ascii-text">O</text>
  <text x="720" y="208" class="ascii-text">A</text>
  <text x="730" y="208" class="ascii-text">A</text>
  <text x="740" y="208" class="ascii-text">A</text>
  <text x="750" y="208" class="ascii-text">%</text>
  <text x="760" y="208" class="ascii-text">A</text>
  <text x="770" y="208" class="ascii-text">%</text>
  <text x="780" y="208" class="ascii-text">A</text>
  <text x="790" y="208" class="ascii-text">%</text>
  <text x="800" y="208" class="ascii-text">A</text>
  <text x="810" y="208" class="ascii-text">%</text>
  <text x="820" y="208" class="ascii-text">A</text>
  <text x="830" y="208" class="ascii-text">O</text>
  <text x="840" y="208" class="ascii-text">a</text>
  <text x="850" y="208" class="ascii-text">+</text>
  <text x="860" y="208" class="ascii-text">-</text>
  <text x="870" y="208" class="ascii-text">~</text>
  <text x="850" y="224" class="ascii-text">=</text>
  <text x="860" y="224" class="ascii-text">o</text>
  <text x="870" y="224" class="ascii-text">a</text>
  <text x="880" y="224" class="ascii-text">A</text>
  <text x="890" y="224" class="ascii-text">o</text>
  <text x="900" y="224" class="ascii-text">*</text>
  <text x="910" y="224" class="ascii-text">*</text>
  <text x="920" y="224" class="ascii-text">.</text>
  <text x="890" y="240" class="ascii-text">-</text>
  <text x="900" y="240" class="ascii-text">+</text>
  <text x="910" y="240" class="ascii-text">o</text>
  <text x="920" y="240" class="ascii-text">A</text>
  <text x="930" y="240" class="ascii-text">*</text>
  <text x="940" y="240" class="ascii-text">*</text>
  <text x="950" y="240" class="ascii-text">-</text>
  <text x="920" y="256" class="ascii-text">+</text>
  <text x="930" y="256" class="ascii-text">a</text>
  <text x="940" y="256" class="ascii-text">A</text>
  <text x="950" y="256" class="ascii-text">a</text>
  <text x="960" y="256" class="ascii-text">o</text>
  <text x="970" y="256" class="ascii-text">+</text>
  <text x="560" y="272" class="ascii-text">~</text>
  <text x="570" y="272" class="ascii-text">*</text>
  <text x="580" y="272" class="ascii-text">*</text>
  <text x="590" y="272" class="ascii-text">+</text>
  <text x="600" y="272" class="ascii-text">*</text>
  <text x="610" y="272" class="ascii-text">*</text>
  <text x="620" y="272" class="ascii-text">+</text>
  <text x="630" y="272" class="ascii-text">*</text>
  <text x="640" y="272" class="ascii-text">*</text>
  <text x="650" y="272" class="ascii-text">+</text>
  <text x="660" y="272" class="ascii-text">*</text>
  <text x="670" y="272" class="ascii-text">*</text>
  <text x="680" y="272" class="ascii-text">+</text>
  <text x="690" y="272" class="ascii-text">-</text>
  <text x="700" y="272" class="ascii-text">~</text>
  <text x="930" y="272" class="ascii-text">.</text>
  <text x="940" y="272" class="ascii-text">a</text>
  <text x="950" y="272" class="ascii-text">%</text>
  <text x="960" y="272" class="ascii-text">A</text>
  <text x="970" y="272" class="ascii-text">O</text>
  <text x="980" y="272" class="ascii-text">+</text>
  <text x="530" y="288" class="ascii-text">-</text>
  <text x="540" y="288" class="ascii-text">*</text>
  <text x="550" y="288" class="ascii-text">*</text>
  <text x="560" y="288" class="ascii-text">O</text>
  <text x="570" y="288" class="ascii-text">A</text>
  <text x="580" y="288" class="ascii-text">a</text>
  <text x="590" y="288" class="ascii-text">*</text>
  <text x="600" y="288" class="ascii-text">*</text>
  <text x="610" y="288" class="ascii-text">+</text>
  <text x="620" y="288" class="ascii-text">*</text>
  <text x="630" y="288" class="ascii-text">*</text>
  <text x="640" y="288" class="ascii-text">+</text>
  <text x="650" y="288" class="ascii-text">*</text>
  <text x="660" y="288" class="ascii-text">*</text>
  <text x="670" y="288" class="ascii-text">+</text>
  <text x="680" y="288" class="ascii-text">*</text>
  <text x="690" y="288" class="ascii-text">o</text>
  <text x="700" y="288" class="ascii-text">a</text>
  <text x="710" y="288" class="ascii-text">O</text>
  <text x="720" y="288" class="ascii-text">o</text>
  <text x="730" y="288" class="ascii-text">*</text>
  <text x="740" y="288" class="ascii-text">.</text>
  <text x="940" y="288" class="ascii-text">*</text>
  <text x="950" y="288" class="ascii-text">%</text>
  <text x="960" y="288" class="ascii-text">A</text>
  <text x="970" y="288" class="ascii-text">%</text>
  <text x="980" y="288" class="ascii-text">O</text>
  <text x="990" y="288" class="ascii-text">*</text>
  <text x="520" y="304" class="ascii-text">*</text>
  <text x="530" y="304" class="ascii-text">a</text>
  <text x="540" y="304" class="ascii-text">A</text>
  <text x="550" y="304" class="ascii-text">O</text>
  <text x="560" y="304" class="ascii-text">o</text>
  <text x="570" y="304" class="ascii-text">+</text>
  <text x="580" y="304" class="ascii-text">.</text>
  <text x="720" y="304" class="ascii-text">=</text>
  <text x="730" y="304" class="ascii-text">*</text>
  <text x="740" y="304" class="ascii-text">a</text>
  <text x="750" y="304" class="ascii-text">O</text>
  <text x="760" y="304" class="ascii-text">o</text>
  <text x="770" y="304" class="ascii-text">+</text>
  <text x="940" y="304" class="ascii-text">*</text>
  <text x="950" y="304" class="ascii-text">%</text>
  <text x="960" y="304" class="ascii-text">A</text>
  <text x="970" y="304" class="ascii-text">%</text>
  <text x="980" y="304" class="ascii-text">A</text>
  <text x="990" y="304" class="ascii-text">o</text>
  <text x="510" y="320" class="ascii-text">*</text>
  <text x="520" y="320" class="ascii-text">O</text>
  <text x="530" y="320" class="ascii-text">%</text>
  <text x="540" y="320" class="ascii-text">O</text>
  <text x="550" y="320" class="ascii-text">+</text>
  <text x="760" y="320" class="ascii-text">+</text>
  <text x="770" y="320" class="ascii-text">o</text>
  <text x="780" y="320" class="ascii-text">A</text>
  <text x="790" y="320" class="ascii-text">*</text>
  <text x="800" y="320" class="ascii-text">-</text>
  <text x="930" y="320" class="ascii-text">.</text>
  <text x="940" y="320" class="ascii-text">a</text>
  <text x="950" y="320" class="ascii-text">A</text>
  <text x="960" y="320" class="ascii-text">%</text>
  <text x="970" y="320" class="ascii-text">A</text>
  <text x="980" y="320" class="ascii-text">A</text>
  <text x="990" y="320" class="ascii-text">*</text>
  <text x="500" y="336" class="ascii-text">+</text>
  <text x="510" y="336" class="ascii-text">O</text>
  <text x="520" y="336" class="ascii-text">%</text>
  <text x="530" y="336" class="ascii-text">A</text>
  <text x="540" y="336" class="ascii-text">a</text>
  <text x="790" y="336" class="ascii-text">*</text>
  <text x="800" y="336" class="ascii-text">a</text>
  <text x="810" y="336" class="ascii-text">O</text>
  <text x="820" y="336" class="ascii-text">*</text>
  <text x="830" y="336" class="ascii-text">~</text>
  <text x="930" y="336" class="ascii-text">o</text>
  <text x="940" y="336" class="ascii-text">A</text>
  <text x="950" y="336" class="ascii-text">A</text>
  <text x="960" y="336" class="ascii-text">%</text>
  <text x="970" y="336" class="ascii-text">O</text>
  <text x="980" y="336" class="ascii-text">*</text>
  <text x="500" y="352" class="ascii-text">=</text>
  <text x="510" y="352" class="ascii-text">A</text>
  <text x="520" y="352" class="ascii-text">%</text>
  <text x="530" y="352" class="ascii-text">A</text>
  <text x="540" y="352" class="ascii-text">O</text>
  <text x="550" y="352" class="ascii-text">o</text>
  <text x="560" y="352" class="ascii-text">a</text>
  <text x="570" y="352" class="ascii-text">A</text>
  <text x="580" y="352" class="ascii-text">A</text>
  <text x="590" y="352" class="ascii-text">%</text>
  <text x="600" y="352" class="ascii-text">A</text>
  <text x="610" y="352" class="ascii-text">%</text>
  <text x="620" y="352" class="ascii-text">A</text>
  <text x="630" y="352" class="ascii-text">%</text>
  <text x="640" y="352" class="ascii-text">A</text>
  <text x="650" y="352" class="ascii-text">%</text>
  <text x="660" y="352" class="ascii-text">A</text>
  <text x="670" y="352" class="ascii-text">%</text>
  <text x="680" y="352" class="ascii-text">A</text>
  <text x="690" y="352" class="ascii-text">O</text>
  <text x="700" y="352" class="ascii-text">.</text>
  <text x="810" y="352" class="ascii-text">~</text>
  <text x="820" y="352" class="ascii-text">*</text>
  <text x="830" y="352" class="ascii-text">O</text>
  <text x="840" y="352" class="ascii-text">a</text>
  <text x="850" y="352" class="ascii-text">+</text>
  <text x="910" y="352" class="ascii-text">=</text>
  <text x="920" y="352" class="ascii-text">a</text>
  <text x="930" y="352" class="ascii-text">A</text>
  <text x="940" y="352" class="ascii-text">A</text>
  <text x="950" y="352" class="ascii-text">A</text>
  <text x="960" y="352" class="ascii-text">O</text>
  <text x="970" y="352" class="ascii-text">+</text>
  <text x="480" y="368" class="ascii-text">+</text>
  <text x="490" y="368" class="ascii-text">*</text>
  <text x="500" y="368" class="ascii-text">A</text>
  <text x="510" y="368" class="ascii-text">o</text>
  <text x="520" y="368" class="ascii-text">*</text>
  <text x="530" y="368" class="ascii-text">a</text>
  <text x="540" y="368" class="ascii-text">O</text>
  <text x="550" y="368" class="ascii-text">O</text>
  <text x="560" y="368" class="ascii-text">.</text>
  <text x="700" y="368" class="ascii-text">o</text>
  <text x="710" y="368" class="ascii-text">O</text>
  <text x="720" y="368" class="ascii-text">A</text>
  <text x="730" y="368" class="ascii-text">A</text>
  <text x="740" y="368" class="ascii-text">O</text>
  <text x="750" y="368" class="ascii-text">*</text>
  <text x="840" y="368" class="ascii-text">=</text>
  <text x="850" y="368" class="ascii-text">o</text>
  <text x="860" y="368" class="ascii-text">A</text>
  <text x="870" y="368" class="ascii-text">o</text>
  <text x="880" y="368" class="ascii-text">+</text>
  <text x="890" y="368" class="ascii-text">+</text>
  <text x="900" y="368" class="ascii-text">o</text>
  <text x="910" y="368" class="ascii-text">a</text>
  <text x="920" y="368" class="ascii-text">A</text>
  <text x="930" y="368" class="ascii-text">O</text>
  <text x="940" y="368" class="ascii-text">o</text>
  <text x="950" y="368" class="ascii-text">*</text>
  <text x="960" y="368" class="ascii-text">-</text>
  <text x="1050" y="368" class="ascii-text">+</text>
  <text x="1060" y="368" class="ascii-text">a</text>
  <text x="1070" y="368" class="ascii-text">A</text>
  <text x="1080" y="368" class="ascii-text">A</text>
  <text x="1090" y="368" class="ascii-text">%</text>
  <text x="1100" y="368" class="ascii-text">A</text>
  <text x="1110" y="368" class="ascii-text">a</text>
  <text x="1120" y="368" class="ascii-text">o</text>
  <text x="1130" y="368" class="ascii-text">+</text>
  <text x="460" y="384" class="ascii-text">+</text>
  <text x="470" y="384" class="ascii-text">o</text>
  <text x="480" y="384" class="ascii-text">A</text>
  <text x="490" y="384" class="ascii-text">a</text>
  <text x="500" y="384" class="ascii-text">+</text>
  <text x="540" y="384" class="ascii-text">*</text>
  <text x="550" y="384" class="ascii-text">o</text>
  <text x="560" y="384" class="ascii-text">A</text>
  <text x="570" y="384" class="ascii-text">*</text>
  <text x="580" y="384" class="ascii-text">~</text>
  <text x="750" y="384" class="ascii-text">*</text>
  <text x="760" y="384" class="ascii-text">O</text>
  <text x="770" y="384" class="ascii-text">A</text>
  <text x="780" y="384" class="ascii-text">a</text>
  <text x="790" y="384" class="ascii-text">=</text>
  <text x="860" y="384" class="ascii-text">-</text>
  <text x="870" y="384" class="ascii-text">O</text>
  <text x="880" y="384" class="ascii-text">A</text>
  <text x="890" y="384" class="ascii-text">%</text>
  <text x="900" y="384" class="ascii-text">A</text>
  <text x="910" y="384" class="ascii-text">%</text>
  <text x="920" y="384" class="ascii-text">A</text>
  <text x="930" y="384" class="ascii-text">a</text>
  <text x="1010" y="384" class="ascii-text">-</text>
  <text x="1020" y="384" class="ascii-text">o</text>
  <text x="1030" y="384" class="ascii-text">a</text>
  <text x="1040" y="384" class="ascii-text">A</text>
  <text x="1050" y="384" class="ascii-text">o</text>
  <text x="1120" y="384" class="ascii-text">*</text>
  <text x="1130" y="384" class="ascii-text">A</text>
  <text x="1140" y="384" class="ascii-text">a</text>
  <text x="1150" y="384" class="ascii-text">*</text>
  <text x="1160" y="384" class="ascii-text">~</text>
  <text x="440" y="400" class="ascii-text">+</text>
  <text x="450" y="400" class="ascii-text">o</text>
  <text x="460" y="400" class="ascii-text">O</text>
  <text x="470" y="400" class="ascii-text">O</text>
  <text x="480" y="400" class="ascii-text">o</text>
  <text x="560" y="400" class="ascii-text">:</text>
  <text x="570" y="400" class="ascii-text">*</text>
  <text x="580" y="400" class="ascii-text">a</text>
  <text x="590" y="400" class="ascii-text">A</text>
  <text x="600" y="400" class="ascii-text">o</text>
  <text x="610" y="400" class="ascii-text">+</text>
  <text x="780" y="400" class="ascii-text">-</text>
  <text x="790" y="400" class="ascii-text">A</text>
  <text x="800" y="400" class="ascii-text">o</text>
  <text x="810" y="400" class="ascii-text">*</text>
  <text x="820" y="400" class="ascii-text">=</text>
  <text x="850" y="400" class="ascii-text">=</text>
  <text x="860" y="400" class="ascii-text">O</text>
  <text x="870" y="400" class="ascii-text">a</text>
  <text x="880" y="400" class="ascii-text">*</text>
  <text x="890" y="400" class="ascii-text">*</text>
  <text x="900" y="400" class="ascii-text">*</text>
  <text x="910" y="400" class="ascii-text">o</text>
  <text x="920" y="400" class="ascii-text">O</text>
  <text x="930" y="400" class="ascii-text">o</text>
  <text x="980" y="400" class="ascii-text">=</text>
  <text x="990" y="400" class="ascii-text">o</text>
  <text x="1000" y="400" class="ascii-text">A</text>
  <text x="1010" y="400" class="ascii-text">o</text>
  <text x="1020" y="400" class="ascii-text">=</text>
  <text x="1130" y="400" class="ascii-text">+</text>
  <text x="1140" y="400" class="ascii-text">A</text>
  <text x="1150" y="400" class="ascii-text">A</text>
  <text x="1160" y="400" class="ascii-text">a</text>
  <text x="1170" y="400" class="ascii-text">:</text>
  <text x="430" y="416" class="ascii-text">*</text>
  <text x="440" y="416" class="ascii-text">O</text>
  <text x="450" y="416" class="ascii-text">%</text>
  <text x="460" y="416" class="ascii-text">A</text>
  <text x="470" y="416" class="ascii-text">a</text>
  <text x="600" y="416" class="ascii-text">-</text>
  <text x="610" y="416" class="ascii-text">o</text>
  <text x="620" y="416" class="ascii-text">a</text>
  <text x="630" y="416" class="ascii-text">A</text>
  <text x="640" y="416" class="ascii-text">A</text>
  <text x="650" y="416" class="ascii-text">O</text>
  <text x="660" y="416" class="ascii-text">a</text>
  <text x="670" y="416" class="ascii-text">*</text>
  <text x="680" y="416" class="ascii-text">*</text>
  <text x="690" y="416" class="ascii-text">=</text>
  <text x="700" y="416" class="ascii-text">-</text>
  <text x="710" y="416" class="ascii-text">.</text>
  <text x="740" y="416" class="ascii-text">.</text>
  <text x="750" y="416" class="ascii-text">:</text>
  <text x="760" y="416" class="ascii-text">+</text>
  <text x="770" y="416" class="ascii-text">*</text>
  <text x="780" y="416" class="ascii-text">O</text>
  <text x="790" y="416" class="ascii-text">O</text>
  <text x="800" y="416" class="ascii-text">o</text>
  <text x="810" y="416" class="ascii-text">*</text>
  <text x="820" y="416" class="ascii-text">O</text>
  <text x="830" y="416" class="ascii-text">a</text>
  <text x="840" y="416" class="ascii-text">a</text>
  <text x="850" y="416" class="ascii-text">O</text>
  <text x="860" y="416" class="ascii-text">a</text>
  <text x="870" y="416" class="ascii-text">.</text>
  <text x="920" y="416" class="ascii-text">a</text>
  <text x="930" y="416" class="ascii-text">O</text>
  <text x="940" y="416" class="ascii-text">o</text>
  <text x="950" y="416" class="ascii-text">*</text>
  <text x="960" y="416" class="ascii-text">*</text>
  <text x="970" y="416" class="ascii-text">a</text>
  <text x="980" y="416" class="ascii-text">O</text>
  <text x="990" y="416" class="ascii-text">o</text>
  <text x="1130" y="416" class="ascii-text">*</text>
  <text x="1140" y="416" class="ascii-text">A</text>
  <text x="1150" y="416" class="ascii-text">A</text>
  <text x="1160" y="416" class="ascii-text">A</text>
  <text x="1170" y="416" class="ascii-text">*</text>
  <text x="420" y="432" class="ascii-text">+</text>
  <text x="430" y="432" class="ascii-text">O</text>
  <text x="440" y="432" class="ascii-text">A</text>
  <text x="450" y="432" class="ascii-text">%</text>
  <text x="460" y="432" class="ascii-text">A</text>
  <text x="470" y="432" class="ascii-text">o</text>
  <text x="660" y="432" class="ascii-text">.</text>
  <text x="670" y="432" class="ascii-text">+</text>
  <text x="680" y="432" class="ascii-text">*</text>
  <text x="690" y="432" class="ascii-text">*</text>
  <text x="700" y="432" class="ascii-text">o</text>
  <text x="710" y="432" class="ascii-text">a</text>
  <text x="720" y="432" class="ascii-text">a</text>
  <text x="730" y="432" class="ascii-text">a</text>
  <text x="740" y="432" class="ascii-text">a</text>
  <text x="750" y="432" class="ascii-text">o</text>
  <text x="760" y="432" class="ascii-text">*</text>
  <text x="770" y="432" class="ascii-text">*</text>
  <text x="780" y="432" class="ascii-text">+</text>
  <text x="790" y="432" class="ascii-text">:</text>
  <text x="830" y="432" class="ascii-text">+</text>
  <text x="840" y="432" class="ascii-text">a</text>
  <text x="850" y="432" class="ascii-text">O</text>
  <text x="860" y="432" class="ascii-text">O</text>
  <text x="870" y="432" class="ascii-text">:</text>
  <text x="910" y="432" class="ascii-text">+</text>
  <text x="920" y="432" class="ascii-text">O</text>
  <text x="930" y="432" class="ascii-text">A</text>
  <text x="940" y="432" class="ascii-text">o</text>
  <text x="950" y="432" class="ascii-text">*</text>
  <text x="960" y="432" class="ascii-text">*</text>
  <text x="970" y="432" class="ascii-text">o</text>
  <text x="980" y="432" class="ascii-text">A</text>
  <text x="990" y="432" class="ascii-text">a</text>
  <text x="1000" y="432" class="ascii-text">=</text>
  <text x="1110" y="432" class="ascii-text">=</text>
  <text x="1120" y="432" class="ascii-text">o</text>
  <text x="1130" y="432" class="ascii-text">a</text>
  <text x="1140" y="432" class="ascii-text">%</text>
  <text x="1150" y="432" class="ascii-text">A</text>
  <text x="1160" y="432" class="ascii-text">a</text>
  <text x="1170" y="432" class="ascii-text">-</text>
  <text x="410" y="448" class="ascii-text">.</text>
  <text x="420" y="448" class="ascii-text">a</text>
  <text x="430" y="448" class="ascii-text">%</text>
  <text x="440" y="448" class="ascii-text">A</text>
  <text x="450" y="448" class="ascii-text">%</text>
  <text x="460" y="448" class="ascii-text">A</text>
  <text x="470" y="448" class="ascii-text">o</text>
  <text x="850" y="448" class="ascii-text">a</text>
  <text x="860" y="448" class="ascii-text">A</text>
  <text x="870" y="448" class="ascii-text">a</text>
  <text x="880" y="448" class="ascii-text">*</text>
  <text x="890" y="448" class="ascii-text">*</text>
  <text x="900" y="448" class="ascii-text">o</text>
  <text x="910" y="448" class="ascii-text">A</text>
  <text x="920" y="448" class="ascii-text">o</text>
  <text x="930" y="448" class="ascii-text">+</text>
  <text x="980" y="448" class="ascii-text">=</text>
  <text x="990" y="448" class="ascii-text">*</text>
  <text x="1000" y="448" class="ascii-text">o</text>
  <text x="1010" y="448" class="ascii-text">A</text>
  <text x="1020" y="448" class="ascii-text">O</text>
  <text x="1030" y="448" class="ascii-text">a</text>
  <text x="1040" y="448" class="ascii-text">*</text>
  <text x="1050" y="448" class="ascii-text">*</text>
  <text x="1060" y="448" class="ascii-text">*</text>
  <text x="1070" y="448" class="ascii-text">+</text>
  <text x="1080" y="448" class="ascii-text">*</text>
  <text x="1090" y="448" class="ascii-text">*</text>
  <text x="1100" y="448" class="ascii-text">o</text>
  <text x="1110" y="448" class="ascii-text">O</text>
  <text x="1120" y="448" class="ascii-text">A</text>
  <text x="1130" y="448" class="ascii-text">O</text>
  <text x="1140" y="448" class="ascii-text">o</text>
  <text x="1150" y="448" class="ascii-text">*</text>
  <text x="1160" y="448" class="ascii-text">:</text>
  <text x="410" y="464" class="ascii-text">-</text>
  <text x="420" y="464" class="ascii-text">A</text>
  <text x="430" y="464" class="ascii-text">A</text>
  <text x="440" y="464" class="ascii-text">%</text>
  <text x="450" y="464" class="ascii-text">A</text>
  <text x="460" y="464" class="ascii-text">%</text>
  <text x="470" y="464" class="ascii-text">O</text>
  <text x="480" y="464" class="ascii-text">-</text>
  <text x="840" y="464" class="ascii-text">.</text>
  <text x="850" y="464" class="ascii-text">a</text>
  <text x="860" y="464" class="ascii-text">%</text>
  <text x="870" y="464" class="ascii-text">A</text>
  <text x="880" y="464" class="ascii-text">A</text>
  <text x="890" y="464" class="ascii-text">A</text>
  <text x="900" y="464" class="ascii-text">A</text>
  <text x="910" y="464" class="ascii-text">o</text>
  <text x="1030" y="464" class="ascii-text">~</text>
  <text x="1040" y="464" class="ascii-text">=</text>
  <text x="1050" y="464" class="ascii-text">+</text>
  <text x="1060" y="464" class="ascii-text">*</text>
  <text x="1070" y="464" class="ascii-text">*</text>
  <text x="1080" y="464" class="ascii-text">+</text>
  <text x="1090" y="464" class="ascii-text">*</text>
  <text x="1100" y="464" class="ascii-text">+</text>
  <text x="1110" y="464" class="ascii-text">*</text>
  <text x="1120" y="464" class="ascii-text">+</text>
  <text x="1130" y="464" class="ascii-text">:</text>
  <text x="410" y="480" class="ascii-text">=</text>
  <text x="420" y="480" class="ascii-text">O</text>
  <text x="430" y="480" class="ascii-text">%</text>
  <text x="440" y="480" class="ascii-text">A</text>
  <text x="450" y="480" class="ascii-text">%</text>
  <text x="460" y="480" class="ascii-text">A</text>
  <text x="470" y="480" class="ascii-text">A</text>
  <text x="480" y="480" class="ascii-text">a</text>
  <text x="490" y="480" class="ascii-text">+</text>
  <text x="800" y="480" class="ascii-text">~</text>
  <text x="810" y="480" class="ascii-text">+</text>
  <text x="820" y="480" class="ascii-text">*</text>
  <text x="830" y="480" class="ascii-text">*</text>
  <text x="840" y="480" class="ascii-text">O</text>
  <text x="850" y="480" class="ascii-text">a</text>
  <text x="860" y="480" class="ascii-text">*</text>
  <text x="870" y="480" class="ascii-text">+</text>
  <text x="880" y="480" class="ascii-text">+</text>
  <text x="890" y="480" class="ascii-text">o</text>
  <text x="900" y="480" class="ascii-text">O</text>
  <text x="910" y="480" class="ascii-text">O</text>
  <text x="920" y="480" class="ascii-text">o</text>
  <text x="930" y="480" class="ascii-text">+</text>
  <text x="1170" y="480" class="ascii-text">:</text>
  <text x="1180" y="480" class="ascii-text">*</text>
  <text x="1190" y="480" class="ascii-text">+</text>
  <text x="420" y="496" class="ascii-text">*</text>
  <text x="430" y="496" class="ascii-text">O</text>
  <text x="440" y="496" class="ascii-text">%</text>
  <text x="450" y="496" class="ascii-text">A</text>
  <text x="460" y="496" class="ascii-text">%</text>
  <text x="470" y="496" class="ascii-text">A</text>
  <text x="480" y="496" class="ascii-text">%</text>
  <text x="490" y="496" class="ascii-text">O</text>
  <text x="500" y="496" class="ascii-text">*</text>
  <text x="510" y="496" class="ascii-text">-</text>
  <text x="760" y="496" class="ascii-text">-</text>
  <text x="770" y="496" class="ascii-text">+</text>
  <text x="780" y="496" class="ascii-text">*</text>
  <text x="790" y="496" class="ascii-text">*</text>
  <text x="800" y="496" class="ascii-text">A</text>
  <text x="810" y="496" class="ascii-text">a</text>
  <text x="820" y="496" class="ascii-text">*</text>
  <text x="830" y="496" class="ascii-text">*</text>
  <text x="840" y="496" class="ascii-text">+</text>
  <text x="900" y="496" class="ascii-text">=</text>
  <text x="910" y="496" class="ascii-text">*</text>
  <text x="920" y="496" class="ascii-text">o</text>
  <text x="930" y="496" class="ascii-text">A</text>
  <text x="940" y="496" class="ascii-text">o</text>
  <text x="950" y="496" class="ascii-text">*</text>
  <text x="960" y="496" class="ascii-text">+</text>
  <text x="1110" y="496" class="ascii-text">.</text>
  <text x="1120" y="496" class="ascii-text">=</text>
  <text x="1130" y="496" class="ascii-text">+</text>
  <text x="1140" y="496" class="ascii-text">*</text>
  <text x="1150" y="496" class="ascii-text">*</text>
  <text x="1160" y="496" class="ascii-text">o</text>
  <text x="1170" y="496" class="ascii-text">a</text>
  <text x="1180" y="496" class="ascii-text">A</text>
  <text x="1190" y="496" class="ascii-text">O</text>
  <text x="1200" y="496" class="ascii-text">o</text>
  <text x="1210" y="496" class="ascii-text">*</text>
  <text x="1220" y="496" class="ascii-text">.</text>
  <text x="430" y="512" class="ascii-text">*</text>
  <text x="440" y="512" class="ascii-text">o</text>
  <text x="450" y="512" class="ascii-text">O</text>
  <text x="460" y="512" class="ascii-text">A</text>
  <text x="470" y="512" class="ascii-text">%</text>
  <text x="480" y="512" class="ascii-text">A</text>
  <text x="490" y="512" class="ascii-text">%</text>
  <text x="500" y="512" class="ascii-text">A</text>
  <text x="510" y="512" class="ascii-text">O</text>
  <text x="520" y="512" class="ascii-text">o</text>
  <text x="530" y="512" class="ascii-text">*</text>
  <text x="540" y="512" class="ascii-text">+</text>
  <text x="550" y="512" class="ascii-text">~</text>
  <text x="690" y="512" class="ascii-text">.</text>
  <text x="700" y="512" class="ascii-text">.</text>
  <text x="710" y="512" class="ascii-text">=</text>
  <text x="720" y="512" class="ascii-text">*</text>
  <text x="730" y="512" class="ascii-text">*</text>
  <text x="740" y="512" class="ascii-text">+</text>
  <text x="750" y="512" class="ascii-text">o</text>
  <text x="760" y="512" class="ascii-text">O</text>
  <text x="770" y="512" class="ascii-text">O</text>
  <text x="780" y="512" class="ascii-text">*</text>
  <text x="790" y="512" class="ascii-text">*</text>
  <text x="800" y="512" class="ascii-text">=</text>
  <text x="930" y="512" class="ascii-text">=</text>
  <text x="940" y="512" class="ascii-text">*</text>
  <text x="950" y="512" class="ascii-text">o</text>
  <text x="960" y="512" class="ascii-text">A</text>
  <text x="970" y="512" class="ascii-text">a</text>
  <text x="980" y="512" class="ascii-text">*</text>
  <text x="990" y="512" class="ascii-text">*</text>
  <text x="1000" y="512" class="ascii-text">+</text>
  <text x="1010" y="512" class="ascii-text">+</text>
  <text x="1020" y="512" class="ascii-text">~</text>
  <text x="1030" y="512" class="ascii-text">.</text>
  <text x="1040" y="512" class="ascii-text">.</text>
  <text x="1050" y="512" class="ascii-text">-</text>
  <text x="1060" y="512" class="ascii-text">+</text>
  <text x="1070" y="512" class="ascii-text">*</text>
  <text x="1080" y="512" class="ascii-text">*</text>
  <text x="1090" y="512" class="ascii-text">+</text>
  <text x="1100" y="512" class="ascii-text">o</text>
  <text x="1110" y="512" class="ascii-text">a</text>
  <text x="1120" y="512" class="ascii-text">O</text>
  <text x="1130" y="512" class="ascii-text">%</text>
  <text x="1140" y="512" class="ascii-text">A</text>
  <text x="1150" y="512" class="ascii-text">%</text>
  <text x="1160" y="512" class="ascii-text">A</text>
  <text x="1170" y="512" class="ascii-text">%</text>
  <text x="1180" y="512" class="ascii-text">%</text>
  <text x="1190" y="512" class="ascii-text">A</text>
  <text x="1200" y="512" class="ascii-text">O</text>
  <text x="1210" y="512" class="ascii-text">o</text>
  <text x="1220" y="512" class="ascii-text">=</text>
  <text x="450" y="528" class="ascii-text">-</text>
  <text x="460" y="528" class="ascii-text">*</text>
  <text x="470" y="528" class="ascii-text">*</text>
  <text x="480" y="528" class="ascii-text">O</text>
  <text x="490" y="528" class="ascii-text">A</text>
  <text x="500" y="528" class="ascii-text">%</text>
  <text x="510" y="528" class="ascii-text">A</text>
  <text x="520" y="528" class="ascii-text">A</text>
  <text x="530" y="528" class="ascii-text">%</text>
  <text x="540" y="528" class="ascii-text">O</text>
  <text x="550" y="528" class="ascii-text">O</text>
  <text x="560" y="528" class="ascii-text">o</text>
  <text x="570" y="528" class="ascii-text">*</text>
  <text x="580" y="528" class="ascii-text">*</text>
  <text x="590" y="528" class="ascii-text">*</text>
  <text x="600" y="528" class="ascii-text">+</text>
  <text x="610" y="528" class="ascii-text">*</text>
  <text x="620" y="528" class="ascii-text">*</text>
  <text x="630" y="528" class="ascii-text">+</text>
  <text x="640" y="528" class="ascii-text">*</text>
  <text x="650" y="528" class="ascii-text">*</text>
  <text x="660" y="528" class="ascii-text">+</text>
  <text x="670" y="528" class="ascii-text">*</text>
  <text x="680" y="528" class="ascii-text">o</text>
  <text x="690" y="528" class="ascii-text">a</text>
  <text x="700" y="528" class="ascii-text">O</text>
  <text x="710" y="528" class="ascii-text">A</text>
  <text x="720" y="528" class="ascii-text">O</text>
  <text x="730" y="528" class="ascii-text">o</text>
  <text x="740" y="528" class="ascii-text">*</text>
  <text x="750" y="528" class="ascii-text">*</text>
  <text x="760" y="528" class="ascii-text">+</text>
  <text x="770" y="528" class="ascii-text">~</text>
  <text x="960" y="528" class="ascii-text">-</text>
  <text x="970" y="528" class="ascii-text">+</text>
  <text x="980" y="528" class="ascii-text">*</text>
  <text x="990" y="528" class="ascii-text">o</text>
  <text x="1000" y="528" class="ascii-text">O</text>
  <text x="1010" y="528" class="ascii-text">A</text>
  <text x="1020" y="528" class="ascii-text">O</text>
  <text x="1030" y="528" class="ascii-text">O</text>
  <text x="1040" y="528" class="ascii-text">O</text>
  <text x="1050" y="528" class="ascii-text">O</text>
  <text x="1060" y="528" class="ascii-text">A</text>
  <text x="1070" y="528" class="ascii-text">%</text>
  <text x="1080" y="528" class="ascii-text">A</text>
  <text x="1090" y="528" class="ascii-text">%</text>
  <text x="1100" y="528" class="ascii-text">A</text>
  <text x="1110" y="528" class="ascii-text">%</text>
  <text x="1120" y="528" class="ascii-text">A</text>
  <text x="1130" y="528" class="ascii-text">A</text>
  <text x="1140" y="528" class="ascii-text">O</text>
  <text x="1150" y="528" class="ascii-text">o</text>
  <text x="1160" y="528" class="ascii-text">*</text>
  <text x="1170" y="528" class="ascii-text">+</text>
  <text x="1180" y="528" class="ascii-text">*</text>
  <text x="1190" y="528" class="ascii-text">+</text>
  <text x="1200" y="528" class="ascii-text">~</text>
  <text x="480" y="544" class="ascii-text">-</text>
  <text x="490" y="544" class="ascii-text">*</text>
  <text x="500" y="544" class="ascii-text">+</text>
  <text x="510" y="544" class="ascii-text">*</text>
  <text x="520" y="544" class="ascii-text">o</text>
  <text x="530" y="544" class="ascii-text">o</text>
  <text x="540" y="544" class="ascii-text">a</text>
  <text x="550" y="544" class="ascii-text">A</text>
  <text x="560" y="544" class="ascii-text">A</text>
  <text x="570" y="544" class="ascii-text">%</text>
  <text x="580" y="544" class="ascii-text">A</text>
  <text x="590" y="544" class="ascii-text">%</text>
  <text x="600" y="544" class="ascii-text">A</text>
  <text x="610" y="544" class="ascii-text">%</text>
  <text x="620" y="544" class="ascii-text">A</text>
  <text x="630" y="544" class="ascii-text">%</text>
  <text x="640" y="544" class="ascii-text">A</text>
  <text x="650" y="544" class="ascii-text">a</text>
  <text x="660" y="544" class="ascii-text">a</text>
  <text x="670" y="544" class="ascii-text">o</text>
  <text x="680" y="544" class="ascii-text">*</text>
  <text x="690" y="544" class="ascii-text">*</text>
  <text x="700" y="544" class="ascii-text">+</text>
  <text x="710" y="544" class="ascii-text">*</text>
  <text x="720" y="544" class="ascii-text">+</text>
  <text x="1000" y="544" class="ascii-text">+</text>
  <text x="1010" y="544" class="ascii-text">+</text>
  <text x="1020" y="544" class="ascii-text">*</text>
  <text x="1030" y="544" class="ascii-text">+</text>
  <text x="1040" y="544" class="ascii-text">*</text>
  <text x="1050" y="544" class="ascii-text">*</text>
  <text x="1060" y="544" class="ascii-text">*</text>
  <text x="1070" y="544" class="ascii-text">+</text>
  <text x="1080" y="544" class="ascii-text">*</text>
  <text x="1090" y="544" class="ascii-text">*</text>
  <text x="1100" y="544" class="ascii-text">+</text>
  <text x="1110" y="544" class="ascii-text">*</text>
  <text x="1120" y="544" class="ascii-text">*</text>
  <text x="1130" y="544" class="ascii-text">+</text>
  <text x="1140" y="544" class="ascii-text">=</text>
  <text x="540" y="560" class="ascii-text">.</text>
  <text x="550" y="560" class="ascii-text">+</text>
  <text x="560" y="560" class="ascii-text">*</text>
  <text x="570" y="560" class="ascii-text">*</text>
  <text x="580" y="560" class="ascii-text">+</text>
  <text x="590" y="560" class="ascii-text">*</text>
  <text x="600" y="560" class="ascii-text">*</text>
  <text x="610" y="560" class="ascii-text">+</text>
  <text x="620" y="560" class="ascii-text">*</text>
  <text x="630" y="560" class="ascii-text">+</text>
  <text x="640" y="560" class="ascii-text">+</text>
  <text x="650" y="560" class="ascii-text">~</text>
</svg>
